<?xml version="1.0" encoding="UTF-8"?>
<svg xmlns="http://www.w3.org/2000/svg" viewBox="0 0 300 78" width="300" height="78" role="img" aria-label="Servicio Nacional de Impuestos">
  <defs>
    <linearGradient id="shield" x1="0%" y1="0%" x2="0%" y2="100%">
      <stop offset="0%" stop-color="#5c6359"/>
      <stop offset="100%" stop-color="#252f21"/>
    </linearGradient>
  </defs>

  <!-- Emblema: escudo institucional -->
  <g transform="translate(6, 6)">
    <path d="M31 2 L58 12 V36 C58 52 46 63 31 69 C16 63 4 52 4 36 V12 Z"
          fill="url(#shield)"/>
    <path d="M31 2 L58 12 V36 C58 52 46 63 31 69 C16 63 4 52 4 36 V12 Z"
          fill="none" stroke="#1b7f79" stroke-width="2"/>
    <circle cx="31" cy="30" r="9" fill="none" stroke="#d8e9d2" stroke-width="2"/>
    <line x1="31" y1="30" x2="31" y2="21" stroke="#d8e9d2" stroke-width="2"/>
    <line x1="22" y1="30" x2="40" y2="30" stroke="#d8e9d2" stroke-width="2"/>
    <line x1="31" y1="39" x2="31" y2="46" stroke="#d8e9d2" stroke-width="2"/>
    <circle cx="31" cy="30" r="1.6" fill="#d8e9d2"/>
    <rect x="23" y="48" width="16" height="3" rx="1" fill="#d8e9d2"/>
  </g>

  <!-- Marca horizontal de color -->
  <g font-family="Montserrat, system-ui, sans-serif">
    <text x="76" y="30" font-size="15.5" font-weight="700" fill="#252f21" letter-spacing="0.2">SERVICIO NACIONAL</text>
    <text x="76" y="54" font-size="20" font-weight="800" fill="#252f21" letter-spacing="1.6">DE <tspan fill="#1b7f79">IMPUESTOS</tspan></text>
    <text x="77" y="70" font-size="8.6" font-weight="500" fill="#5c6359" letter-spacing="1.5">ADMINISTRACIÓN TRIBUTARIA</text>
  </g>
</svg>
